%TF.GenerationSoftware,KiCad,Pcbnew,7.0.5-0*%
%TF.CreationDate,2024-03-29T12:45:03+03:00*%
%TF.ProjectId,max660_invertor,6d617836-3630-45f6-996e-766572746f72,rev?*%
%TF.SameCoordinates,Original*%
%TF.FileFunction,Copper,L1,Top*%
%TF.FilePolarity,Positive*%
%FSLAX46Y46*%
G04 Gerber Fmt 4.6, Leading zero omitted, Abs format (unit mm)*
G04 Created by KiCad (PCBNEW 7.0.5-0) date 2024-03-29 12:45:03*
%MOMM*%
%LPD*%
G01*
G04 APERTURE LIST*
G04 Aperture macros list*
%AMRoundRect*
0 Rectangle with rounded corners*
0 $1 Rounding radius*
0 $2 $3 $4 $5 $6 $7 $8 $9 X,Y pos of 4 corners*
0 Add a 4 corners polygon primitive as box body*
4,1,4,$2,$3,$4,$5,$6,$7,$8,$9,$2,$3,0*
0 Add four circle primitives for the rounded corners*
1,1,$1+$1,$2,$3*
1,1,$1+$1,$4,$5*
1,1,$1+$1,$6,$7*
1,1,$1+$1,$8,$9*
0 Add four rect primitives between the rounded corners*
20,1,$1+$1,$2,$3,$4,$5,0*
20,1,$1+$1,$4,$5,$6,$7,0*
20,1,$1+$1,$6,$7,$8,$9,0*
20,1,$1+$1,$8,$9,$2,$3,0*%
G04 Aperture macros list end*
%TA.AperFunction,SMDPad,CuDef*%
%ADD10RoundRect,0.250000X0.412500X0.650000X-0.412500X0.650000X-0.412500X-0.650000X0.412500X-0.650000X0*%
%TD*%
%TA.AperFunction,ComponentPad*%
%ADD11C,3.800000*%
%TD*%
%TA.AperFunction,SMDPad,CuDef*%
%ADD12RoundRect,0.150000X-0.825000X-0.150000X0.825000X-0.150000X0.825000X0.150000X-0.825000X0.150000X0*%
%TD*%
%TA.AperFunction,Conductor*%
%ADD13C,0.500000*%
%TD*%
G04 APERTURE END LIST*
D10*
%TO.P,C2,1*%
%TO.N,GND*%
X151562500Y-92000000D03*
%TO.P,C2,2*%
%TO.N,-5V*%
X148437500Y-92000000D03*
%TD*%
%TO.P,C1,1*%
%TO.N,Net-(U1-VOUT2)*%
X145562500Y-81000000D03*
%TO.P,C1,2*%
%TO.N,Net-(U1-GND)*%
X142437500Y-81000000D03*
%TD*%
D11*
%TO.P,H2,1,1*%
%TO.N,+5V*%
X150000000Y-81000000D03*
%TD*%
D12*
%TO.P,U1,1,SENSE*%
%TO.N,unconnected-(U1-SENSE-Pad1)*%
X144628400Y-84537500D03*
%TO.P,U1,2,VOUT2*%
%TO.N,Net-(U1-VOUT2)*%
X144628400Y-85807500D03*
%TO.P,U1,3,VOUT1*%
%TO.N,GND*%
X144628400Y-87077500D03*
%TO.P,U1,4,GND*%
%TO.N,Net-(U1-GND)*%
X144628400Y-88347500D03*
%TO.P,U1,5,SHDN*%
%TO.N,-5V*%
X149578400Y-88347500D03*
%TO.P,U1,6,VSET*%
%TO.N,GND*%
X149578400Y-87077500D03*
%TO.P,U1,7,VTC*%
%TO.N,unconnected-(U1-VTC-Pad7)*%
X149578400Y-85807500D03*
%TO.P,U1,8,VIN*%
%TO.N,+5V*%
X149578400Y-84537500D03*
%TD*%
D11*
%TO.P,H1,1,1*%
%TO.N,-5V*%
X144000000Y-92000000D03*
%TD*%
D13*
%TO.N,Net-(U1-GND)*%
X142437500Y-81000000D02*
X142437500Y-87437500D01*
X142437500Y-87437500D02*
X143347500Y-88347500D01*
X143347500Y-88347500D02*
X144628400Y-88347500D01*
%TO.N,Net-(U1-VOUT2)*%
X147000000Y-82437500D02*
X147000000Y-85000000D01*
X146192500Y-85807500D02*
X144628400Y-85807500D01*
X145562500Y-81000000D02*
X147000000Y-82437500D01*
X147000000Y-85000000D02*
X146192500Y-85807500D01*
%TO.N,GND*%
X149578400Y-87077500D02*
X144628400Y-87077500D01*
%TO.N,-5V*%
X144000000Y-92000000D02*
X148437500Y-92000000D01*
X148437500Y-92000000D02*
X148437500Y-89488400D01*
X148437500Y-89488400D02*
X149578400Y-88347500D01*
%TO.N,GND*%
X151077500Y-87077500D02*
X152000000Y-88000000D01*
X149578400Y-87077500D02*
X151077500Y-87077500D01*
X152000000Y-88000000D02*
X152000000Y-91562500D01*
X152000000Y-91562500D02*
X151562500Y-92000000D01*
%TO.N,+5V*%
X150000000Y-81000000D02*
X150000000Y-84115900D01*
X150000000Y-84115900D02*
X149578400Y-84537500D01*
%TD*%
M02*
